<svg width="204" height="204" viewBox="0 0 204 204" fill="none" xmlns="http://www.w3.org/2000/svg">
<path d="M101.501 117.813L162.751 76.9795L101.501 36.1462V117.813ZM108.647 173.959H165.813C164.622 178.382 162.581 181.955 159.688 184.677C156.796 187.4 153.053 189.101 148.459 189.782L37.1884 203.308C31.5738 204.158 26.5122 202.84 22.0035 199.352C17.4948 195.864 14.9002 191.313 14.2196 185.698L0.693576 74.1722C0.0130208 68.5576 1.37413 63.5385 4.77691 59.1149C8.17969 54.6913 12.6884 52.1392 18.303 51.4587L30.0425 49.9274V70.3441L20.855 71.6201L34.6363 183.146L108.647 173.959ZM70.8759 153.542C65.2613 153.542 60.4549 151.543 56.4566 147.545C52.4583 143.546 50.4592 138.74 50.4592 133.125V20.8337C50.4592 15.2191 52.4583 10.4127 56.4566 6.41439C60.4549 2.41612 65.2613 0.416992 70.8759 0.416992H183.168C188.782 0.416992 193.589 2.41612 197.587 6.41439C201.585 10.4127 203.584 15.2191 203.584 20.8337V133.125C203.584 138.74 201.585 143.546 197.587 147.545C193.589 151.543 188.782 153.542 183.168 153.542H70.8759ZM70.8759 133.125H183.168V20.8337H70.8759V133.125Z" fill="#15617A"/>
</svg>
